<svg xmlns="http://www.w3.org/2000/svg" viewBox="0 0 62.83 55.71"><defs><style>.cls-1{fill:#e9eaeb;}.cls-2{fill:none;}.cls-2,.cls-3{stroke:#2a5082;stroke-miterlimit:10;stroke-width:2px;}.cls-3{fill:#fff;}.cls-4{fill:#a3d4ff;}</style></defs><g id="Layer_2" data-name="Layer 2"><g id="icons"><circle class="cls-1" cx="31.41" cy="25.71" r="24"/><line class="cls-2" x1="1.41" y1="25.71" x2="14.41" y2="25.71"/><line class="cls-2" x1="61.41" y1="25.71" x2="48.41" y2="25.71"/><polyline class="cls-2" points="5.41 29.71 1.41 25.71 5.41 21.71"/><polyline class="cls-2" points="57.41 29.71 61.41 25.71 57.41 21.71"/><line class="cls-2" x1="9.46" y1="3.76" x2="19.36" y2="13.66"/><polyline class="cls-2" points="15.41 3.71 9.41 3.71 9.41 9.71"/><line class="cls-2" x1="53.36" y1="3.76" x2="43.46" y2="13.66"/><polyline class="cls-2" points="47.41 3.71 53.41 3.71 53.41 9.71"/><line class="cls-2" x1="53.36" y1="47.66" x2="44.41" y2="38.71"/><polyline class="cls-2" points="47.41 47.71 53.41 47.71 53.41 41.71"/><line class="cls-2" x1="9.46" y1="47.66" x2="18.41" y2="38.71"/><polyline class="cls-2" points="15.41 47.71 9.41 47.71 9.41 41.71"/><path class="cls-3" d="M31.41,12.41a5,5,0,0,0,5-4.9V5.9a5,5,0,0,0-10,0V7.51A5,5,0,0,0,31.41,12.41Z"/><path class="cls-4" d="M35.41,15.71h-8a7.31,7.31,0,0,0-7,7v9c0,2.23,2.52,5,4.75,5h.25v19h12v-19c2.21-.19,5-2.83,5-5v-9A7.3,7.3,0,0,0,35.41,15.71Z"/><path class="cls-2" d="M37.16,36.71c2.24,0,5.25-2.77,5.25-5v-9a7.3,7.3,0,0,0-7-7h-8a7.31,7.31,0,0,0-7,7v9c0,2.23,2.52,5,4.75,5"/><line class="cls-2" x1="37.41" y1="55.71" x2="37.41" y2="22.71"/><line class="cls-2" x1="25.41" y1="22.71" x2="25.41" y2="55.71"/><line class="cls-2" x1="31.41" y1="55.71" x2="31.41" y2="36.71"/></g></g></svg>