<svg xmlns="http://www.w3.org/2000/svg" viewBox="0 0 60 61"><defs><style>.cls-1{fill:#e9eaeb;}.cls-2,.cls-5{fill:#fff;}.cls-3{fill:#a3d4ff;}.cls-4{fill:none;}.cls-4,.cls-5{stroke:#2a5082;stroke-miterlimit:10;stroke-width:2px;}</style></defs><g id="Layer_2" data-name="Layer 2"><g id="icons"><circle class="cls-1" cx="30" cy="30" r="30"/><path class="cls-2" d="M47,25H13C9.25,25,2,27,2,30.92V43a3.89,3.89,0,0,0,4,4l1,0V61H53V47l1,0a3.89,3.89,0,0,0,4-4V30.92C58,27,50.75,25,47,25Z"/><path class="cls-3" d="M30,21c-3.75,0-11,2-11,6V39.08A3.79,3.79,0,0,0,23,43h1V61H36V43h1a3.79,3.79,0,0,0,4-3.92V27C41,23,33.75,21,30,21Z"/><path class="cls-4" d="M37,43.08a3.85,3.85,0,0,0,4-4V27c0-4-7.25-6-11-6s-11,2-11,6V39.08a3.85,3.85,0,0,0,4,4"/><path class="cls-5" d="M30,18a5,5,0,0,0,5-5.1V11.18a5,5,0,1,0-10,0v1.71A5,5,0,0,0,30,18Z"/><path class="cls-4" d="M54,47a3.89,3.89,0,0,0,4-4V30.92C58,27,50.75,25,47,25H43"/><line class="cls-4" x1="53" y1="61" x2="53" y2="35"/><path class="cls-5" d="M47,21.91a5,5,0,0,0,5-5.11V15.1a5,5,0,1,0-10,0v1.7A5,5,0,0,0,47,21.91Z"/><path class="cls-4" d="M6,47a3.89,3.89,0,0,1-4-4V30.92C2,27,9.25,25,13,25h4"/><line class="cls-4" x1="7" y1="61" x2="7" y2="35"/><path class="cls-5" d="M13,21.91A5,5,0,0,1,8,16.8V15.1a5,5,0,1,1,10,0v1.7A5,5,0,0,1,13,21.91Z"/><line class="cls-4" x1="36" y1="61" x2="36" y2="31"/><line class="cls-4" x1="24" y1="31" x2="24" y2="61"/><line class="cls-4" x1="30" y1="42" x2="30" y2="61"/></g></g></svg>